# xmcd
#
# Track frame offsets:
#	150
#	15365
#	30037
#	44495
#	61492
#	75312
#	89855
#	104717
#	121192
#	136895
#	152362
#	165422
#
# Disc length: 2444 seconds
#
# Revision: 1
# Processed by: cddbd v1.4b42PL1 Copyright (c) Steve Scherf et al.
# Submitted via: audiograbber 1.80
#
DISCID=86098a0c
DTITLE=Amy-Lee Bennett - Amy-Lee Bennett
DYEAR=1900
DGENRE=
TTITLE0=The Search Goes On
TTITLE1=The Eyes Of Love
TTITLE2=Here Comes Forever
TTITLE3=With You
TTITLE4=This Changes Everything
TTITLE5=What On Earth
TTITLE6=Too Good To Be True
TTITLE7=Like A Fool
TTITLE8=Who Knows
TTITLE9=Through Your Eyes
TTITLE10=I'm Quittin' You
TTITLE11=This Is That Moment
EXTD=
EXTT0=
EXTT1=
EXTT2=
EXTT3=
EXTT4=
EXTT5=
EXTT6=
EXTT7=
EXTT8=
EXTT9=
EXTT10=
EXTT11=
PLAYORDER=
